<svg xmlns="http://www.w3.org/2000/svg" xmlns:xlink="http://www.w3.org/1999/xlink" xmlns:lucid="lucid" width="660" height="120"><g transform="translate(-120 -290)" lucid:page-tab-id="0_0"><path d="M140 320h160v60H140z" stroke="#000" fill="#fff"/><use xlink:href="#a" transform="matrix(1,0,0,1,145,325) translate(25.099999999999994 28.6)"/><path d="M400 320h160v60H400z" stroke="#000" fill="#fff"/><use xlink:href="#b" transform="matrix(1,0,0,1,405,325) translate(42.05 28.6)"/><path d="M600 310h160v80H600z" stroke="#000" fill="#fff"/><use xlink:href="#c" transform="matrix(1,0,0,1,605,315) translate(57.05 17)"/><use xlink:href="#d" transform="matrix(1,0,0,1,605,315) translate(67.025 38.6)"/><use xlink:href="#e" transform="matrix(1,0,0,1,605,315) translate(32.574999999999996 60.2)"/><path d="M317.78 332.9h-17.03v-.5h17.03zm66.4 0h-18.5v-.5h18.5z"/><path d="M300.76 332.9h-.26v-.5h.26zM398.7 332.65l-14.27 4.63V328z"/><path d="M399.5 332.65l-15.32 4.98v-9.96zm-14.82 4.3l13.2-4.3-13.2-4.3z"/><use xlink:href="#f" transform="matrix(1,0,0,1,317.78451230710033,321.8473352120527) translate(0 14.4)"/><path d="M346.48 364.62h-30.66v-.5h30.66zm52.77 0h-30.77v-.5h30.77z"/><path d="M399.5 364.62h-.26v-.5h.26zM315.57 369l-14.26-4.63 14.27-4.64z"/><path d="M315.82 369.35l-15.32-4.98 15.32-4.98zm-13.7-4.98l13.2 4.3v-8.6z"/><use xlink:href="#g" transform="matrix(1,0,0,1,346.4813630312026,353.5681704342633) translate(0 14.4)"/><path d="M559.3 332.54l24.88.07M559.3 332.54h-.26" stroke="#000" stroke-width=".5" fill="none"/><path d="M598.7 332.65l-14.3 4.6.04-9.28z" stroke="#000" stroke-width=".5"/><path d="M599.25 368.06h-23.43" stroke="#000" stroke-width=".5" fill="none"/><path d="M599.5 368.3h-.26v-.5h.26z"/><path d="M561.3 368.06l14.27-4.64v9.27z" stroke="#000" stroke-width=".5"/><defs><path d="M212-179c-10-28-35-45-73-45-59 0-87 40-87 99 0 60 29 101 89 101 43 0 62-24 78-52l27 14C228-24 195 4 139 4 59 4 22-46 18-125c-6-104 99-153 187-111 19 9 31 26 39 46" id="h"/><path d="M24 0v-261h32V0H24" id="i"/><path d="M100-194c62-1 85 37 85 99 1 63-27 99-86 99S16-35 15-95c0-66 28-99 85-99zM99-20c44 1 53-31 53-75 0-43-8-75-51-75s-53 32-53 75 10 74 51 75" id="j"/><path d="M84 4C-5 8 30-112 23-190h32v120c0 31 7 50 39 49 72-2 45-101 50-169h31l1 190h-30c-1-10 1-25-2-33-11 22-28 36-60 37" id="k"/><path d="M85-194c31 0 48 13 60 33l-1-100h32l1 261h-30c-2-10 0-23-3-31C134-8 116 4 85 4 32 4 16-35 15-94c0-66 23-100 70-100zm9 24c-40 0-46 34-46 75 0 40 6 74 45 74 42 0 51-32 51-76 0-42-9-74-50-73" id="l"/><path d="M185-189c-5-48-123-54-124 2 14 75 158 14 163 119 3 78-121 87-175 55-17-10-28-26-33-46l33-7c5 56 141 63 141-1 0-78-155-14-162-118-5-82 145-84 179-34 5 7 8 16 11 25" id="m"/><path d="M100-194c63 0 86 42 84 106H49c0 40 14 67 53 68 26 1 43-12 49-29l28 8c-11 28-37 45-77 45C44 4 14-33 15-96c1-61 26-98 85-98zm52 81c6-60-76-77-97-28-3 7-6 17-6 28h103" id="n"/><path d="M114-163C36-179 61-72 57 0H25l-1-190h30c1 12-1 29 2 39 6-27 23-49 58-41v29" id="o"/><path d="M108 0H70L1-190h34L89-25l56-165h34" id="p"/><g id="a"><use transform="matrix(0.05,0,0,0.05,0,0)" xlink:href="#h"/><use transform="matrix(0.05,0,0,0.05,12.950000000000001,0)" xlink:href="#i"/><use transform="matrix(0.05,0,0,0.05,16.900000000000002,0)" xlink:href="#j"/><use transform="matrix(0.05,0,0,0.05,26.900000000000002,0)" xlink:href="#k"/><use transform="matrix(0.05,0,0,0.05,36.900000000000006,0)" xlink:href="#l"/><use transform="matrix(0.05,0,0,0.05,46.900000000000006,0)" xlink:href="#m"/><use transform="matrix(0.05,0,0,0.05,58.900000000000006,0)" xlink:href="#n"/><use transform="matrix(0.05,0,0,0.05,68.9,0)" xlink:href="#o"/><use transform="matrix(0.05,0,0,0.05,74.85000000000001,0)" xlink:href="#p"/><use transform="matrix(0.05,0,0,0.05,83.85000000000001,0)" xlink:href="#n"/><use transform="matrix(0.05,0,0,0.05,93.85000000000001,0)" xlink:href="#o"/></g><path d="M135-143c-3-34-86-38-87 0 15 53 115 12 119 90S17 21 10-45l28-5c4 36 97 45 98 0-10-56-113-15-118-90-4-57 82-63 122-42 12 7 21 19 24 35" id="q"/><path d="M210-169c-67 3-38 105-44 169h-31v-121c0-29-5-50-35-48C34-165 62-65 56 0H25l-1-190h30c1 10-1 24 2 32 10-44 99-50 107 0 11-21 27-35 58-36 85-2 47 119 55 194h-31v-121c0-29-5-49-35-48" id="r"/><g id="b"><use transform="matrix(0.05,0,0,0.05,0,0)" xlink:href="#h"/><use transform="matrix(0.05,0,0,0.05,12.950000000000001,0)" xlink:href="#j"/><use transform="matrix(0.05,0,0,0.05,22.950000000000003,0)" xlink:href="#q"/><use transform="matrix(0.05,0,0,0.05,31.950000000000003,0)" xlink:href="#r"/><use transform="matrix(0.05,0,0,0.05,46.900000000000006,0)" xlink:href="#j"/><use transform="matrix(0.05,0,0,0.05,56.900000000000006,0)" xlink:href="#q"/></g><path d="M190 0L58-211 59 0H30v-248h39L202-35l-2-213h31V0h-41" id="s"/><path d="M63-220v92h138v28H63V0H30v-248h175v28H63" id="t"/><g id="c"><use transform="matrix(0.05,0,0,0.05,0,0)" xlink:href="#s"/><use transform="matrix(0.05,0,0,0.05,12.950000000000001,0)" xlink:href="#t"/><use transform="matrix(0.05,0,0,0.05,23.900000000000002,0)" xlink:href="#m"/></g><g id="d"><use transform="matrix(0.05,0,0,0.05,0,0)" xlink:href="#j"/><use transform="matrix(0.05,0,0,0.05,10,0)" xlink:href="#o"/></g><path d="M240 0l2-218c-23 76-54 145-80 218h-23L58-218 59 0H30v-248h44l77 211c21-75 51-140 76-211h43V0h-30" id="u"/><path d="M160-131c35 5 61 23 61 61C221 17 115-2 30 0v-248c76 3 177-17 177 60 0 33-19 50-47 57zm-97-11c50-1 110 9 110-42 0-47-63-36-110-37v79zm0 115c55-2 124 14 124-45 0-56-70-42-124-44v89" id="v"/><path d="M0 4l72-265h28L28 4H0" id="w"/><path d="M33 0v-248h34V0H33" id="x"/><g id="e"><use transform="matrix(0.05,0,0,0.05,0,0)" xlink:href="#m"/><use transform="matrix(0.05,0,0,0.05,12,0)" xlink:href="#u"/><use transform="matrix(0.05,0,0,0.05,26.950000000000003,0)" xlink:href="#v"/><use transform="matrix(0.05,0,0,0.05,38.95,0)" xlink:href="#w"/><use transform="matrix(0.05,0,0,0.05,43.95,0)" xlink:href="#h"/><use transform="matrix(0.05,0,0,0.05,56.900000000000006,0)" xlink:href="#x"/><use transform="matrix(0.05,0,0,0.05,61.900000000000006,0)" xlink:href="#t"/><use transform="matrix(0.05,0,0,0.05,72.85000000000001,0)" xlink:href="#m"/></g><path d="M233-177c-1 41-23 64-60 70L243 0h-38l-65-103H63V0H30v-248c88 3 205-21 203 71zM63-129c60-2 137 13 137-47 0-61-80-42-137-45v92" id="y"/><path d="M30 0v-248h187v28H63v79h144v27H63v87h162V0H30" id="z"/><path d="M127-220V0H93v-220H8v-28h204v28h-85" id="A"/><g id="f"><use transform="matrix(0.05,0,0,0.05,0,0)" xlink:href="#y"/><use transform="matrix(0.05,0,0,0.05,12.950000000000001,0)" xlink:href="#z"/><use transform="matrix(0.05,0,0,0.05,24.950000000000003,0)" xlink:href="#m"/><use transform="matrix(0.05,0,0,0.05,36.95,0)" xlink:href="#A"/></g><path d="M126-127c33 6 58 20 58 59 0 88-139 92-164 29-3-8-5-16-6-25l32-3c6 27 21 44 54 44 32 0 52-15 52-46 0-38-36-46-79-43v-28c39 1 72-4 72-42 0-27-17-43-46-43-28 0-47 15-49 41l-32-3c6-42 35-63 81-64 48-1 79 21 79 65 0 36-21 52-52 59" id="B"/><g id="g"><use transform="matrix(0.05,0,0,0.05,0,0)" xlink:href="#m"/><use transform="matrix(0.05,0,0,0.05,12,0)" xlink:href="#B"/></g></defs></g></svg>