<?xml version="1.0" encoding="UTF-8" standalone="no"?>
<svg
   xmlns:v="http://schemas.microsoft.com/visio/2003/SVGExtensions/"
   xmlns:dc="http://purl.org/dc/elements/1.1/"
   xmlns:cc="http://creativecommons.org/ns#"
   xmlns:rdf="http://www.w3.org/1999/02/22-rdf-syntax-ns#"
   xmlns:svg="http://www.w3.org/2000/svg"
   xmlns="http://www.w3.org/2000/svg"
   xmlns:xlink="http://www.w3.org/1999/xlink"
   width="5.0854177in"
   height="2.1729176in"
   viewBox="0 0 366.15008 156.45007"
   xml:space="preserve"
   class="st16"
   version="1.1"
   id="svg4978"
   style="font-size:12px;overflow:visible;color-interpolation-filters:sRGB;fill:none;fill-rule:evenodd;stroke-linecap:square;stroke-miterlimit:3"><metadata
     id="metadata4982"><rdf:RDF><cc:Work
         rdf:about=""><dc:format>image/svg+xml</dc:format><dc:type
           rdf:resource="http://purl.org/dc/dcmitype/StillImage" /><dc:title></dc:title></cc:Work></rdf:RDF></metadata><v:documentProperties
     v:langID="1033"
     v:viewMarkup="false"><v:userDefs><v:ud
         v:nameU="msvNoAutoConnect"
         v:val="VT0(1):26" /></v:userDefs></v:documentProperties><style
     type="text/css"
     id="style4734"><![CDATA[
		.st1 {fill:#d8d8d8;stroke:none;stroke-linecap:butt;stroke-width:1}
		.st2 {marker-end:url(#mrkr13-14);marker-start:url(#mrkr13-12);stroke:#a5a5a5;stroke-dasharray:3.75,2.25;stroke-linecap:round;stroke-linejoin:round;stroke-width:0.25}
		.st3 {fill:#a5a5a5;fill-opacity:1;stroke:#a5a5a5;stroke-opacity:1;stroke-width:0.090252707581227}
		.st4 {fill:#ffffff;stroke:none;stroke-linecap:butt;stroke-width:7.2}
		.st5 {fill:#a5a5a5;font-family:Helvetica;font-size:0.666664em}
		.st6 {fill:#ffffff;stroke:#000000;stroke-linecap:round;stroke-linejoin:round;stroke-width:0.24}
		.st7 {fill:#000000;font-family:Helvetica;font-size:0.666664em}
		.st8 {fill:none;stroke:#000000;stroke-linecap:round;stroke-linejoin:round;stroke-width:0.24}
		.st9 {fill:#ffffff;stroke:#a5a5a5;stroke-dasharray:3.6,2.16;stroke-linecap:round;stroke-linejoin:round;stroke-width:0.24}
		.st10 {font-size:1em}
		.st11 {marker-end:url(#mrkr13-14);stroke:#a5a5a5;stroke-linecap:round;stroke-linejoin:round;stroke-width:0.25}
		.st12 {marker-end:url(#mrkr13-81);stroke:#000000;stroke-linecap:round;stroke-linejoin:round;stroke-width:0.25}
		.st13 {fill:#000000;fill-opacity:1;stroke:#000000;stroke-opacity:1;stroke-width:0.090252707581227}
		.st14 {fill:#ffffff;stroke:none;stroke-linecap:butt}
		.st15 {stroke:#ffffff;stroke-linecap:round;stroke-linejoin:round;stroke-width:0.75}
		.st16 {fill:none;fill-rule:evenodd;font-size:12px;overflow:visible;stroke-linecap:square;stroke-miterlimit:3}
	]]></style><defs
     id="Markers"><g
       id="lend13"><path
         d="M 3,1 0,0 3,-1 v 2"
         style="stroke:none"
         id="path4736" /></g><marker
       id="mrkr13-12"
       class="st3"
       v:arrowType="13"
       v:arrowSize="2"
       v:setback="31.8"
       refX="31.799999"
       orient="auto"
       markerUnits="strokeWidth"
       overflow="visible"
       style="overflow:visible;fill:#a5a5a5;fill-opacity:1;stroke:#a5a5a5;stroke-width:0.0902527;stroke-opacity:1"><use
         xlink:href="#lend13"
         transform="scale(11.08)"
         id="use4739"
         x="0"
         y="0"
         width="100%"
         height="100%" /></marker><marker
       id="mrkr13-14"
       class="st3"
       v:arrowType="13"
       v:arrowSize="2"
       v:setback="33.24"
       refX="-33.240002"
       orient="auto"
       markerUnits="strokeWidth"
       overflow="visible"
       style="overflow:visible;fill:#a5a5a5;fill-opacity:1;stroke:#a5a5a5;stroke-width:0.0902527;stroke-opacity:1"><use
         xlink:href="#lend13"
         transform="scale(-11.08)"
         id="use4742"
         x="0"
         y="0"
         width="100%"
         height="100%" /></marker><marker
       id="mrkr13-81"
       class="st13"
       v:arrowType="13"
       v:arrowSize="2"
       v:setback="33.24"
       refX="-33.240002"
       orient="auto"
       markerUnits="strokeWidth"
       overflow="visible"
       style="overflow:visible;fill:#000000;fill-opacity:1;stroke:#000000;stroke-width:0.0902527;stroke-opacity:1"><use
         xlink:href="#lend13"
         transform="scale(-11.08)"
         id="use4745"
         x="0"
         y="0"
         width="100%"
         height="100%" /></marker></defs><g
     v:mID="0"
     v:index="1"
     v:groupContext="foregroundPage"
     id="g4976"
     transform="translate(-91.424962,-78.374962)"><title
       id="title4749">Page-1</title><v:pageProperties
       v:drawingScale="1"
       v:pageScale="1"
       v:drawingUnits="19"
       v:shadowOffsetX="9"
       v:shadowOffsetY="-9" /><v:layer
       v:name="Flowchart"
       v:index="0" /><v:layer
       v:name="Connector"
       v:index="1" /><g
       id="group63-1"
       transform="translate(208.459,-607.816)"
       v:mID="63"
       v:groupContext="group"><title
         id="title4751">g28</title><g
         id="shape64-2"
         v:mID="64"
         v:groupContext="shape"
         transform="matrix(1,0,0,-1,18.0396,1580.6)"><title
           id="title4753">path42</title><path
           d="M 5.52,791.13 C 4.9,791.68 4.04,792 3.14,792 H 2.86 c -0.9,0 -1.76,-0.32 -2.38,-0.87 -0.01,-0.01 -0.01,-0.02 -0.02,-0.02 -0.26,-0.24 -0.42,-0.55 -0.43,-0.89 -0.03,-0.62 0.45,-1.19 1.15,-1.35 0.58,-0.13 1.23,-0.25 1.57,-0.26 v 0 c 0.04,0 0.08,0 0.12,0 0.05,-0.01 0.09,-0.01 0.13,-0.01 0.04,0 0.09,0 0.13,0.01 0.04,0 0.08,0 0.12,0 v 0 c 0.34,0.01 0.99,0.13 1.58,0.26 0.7,0.17 1.17,0.73 1.15,1.36 -0.02,0.33 -0.17,0.64 -0.44,0.88 -0.01,0 -0.01,0.01 -0.02,0.02 z"
           class="st1"
           id="path4755"
           style="fill:#d8d8d8;stroke:none;stroke-width:1;stroke-linecap:butt" /></g><g
         id="shape65-4"
         v:mID="65"
         v:groupContext="shape"
         transform="matrix(1,0,0,-1,0,1554.75)"><title
           id="title4758">path46</title><path
           d="m 30.78,775.28 c -0.01,0.15 -0.05,0.3 -0.09,0.44 -0.15,-0.15 -0.35,-0.24 -0.57,-0.24 -0.44,0 -0.78,0.34 -0.78,0.75 0,0.27 0.15,0.51 0.37,0.64 -0.31,0.17 -0.66,0.26 -1.04,0.26 -1.16,0 -2.11,-0.91 -2.11,-2.03 0,-0.01 0,-0.02 0,-0.03 -0.21,0.06 -0.43,0.11 -0.64,0.18 l -0.86,0.29 1.04,1.11 c 0.4,0.42 0.88,0.78 1.42,1.05 0.78,0.41 1.75,0.39 2.52,-0.04 0.41,-0.23 0.73,-0.56 0.91,-0.95 l 0.55,-1.15 c -0.24,-0.11 -0.48,-0.2 -0.72,-0.28 z m -14.62,-0.03 c -0.21,-0.07 -0.43,-0.12 -0.64,-0.18 0,0.01 0,0.02 0,0.03 0,0.22 -0.04,0.43 -0.11,0.63 -0.11,-0.06 -0.24,-0.1 -0.39,-0.1 -0.43,0 -0.78,0.34 -0.78,0.75 0,0.19 0.08,0.36 0.2,0.49 -0.31,0.17 -0.66,0.26 -1.03,0.26 -1.11,0 -2.01,-0.81 -2.11,-1.85 -0.24,0.08 -0.48,0.17 -0.72,0.28 l 0.55,1.15 c 0.18,0.39 0.5,0.72 0.91,0.95 0.77,0.43 1.74,0.45 2.53,0.04 0.54,-0.27 1.02,-0.63 1.41,-1.05 l 1.05,-1.11 z m 25.71,12.53 c -0.26,-0.29 -0.6,-0.66 -0.88,-0.97 l -0.01,0.06 c 0.07,0.41 0.13,0.82 0.19,1.23 0.06,0.42 0.13,0.84 0.16,1.26 0,0.08 -0.11,0.12 -0.16,0.06 -0.14,-0.16 -0.31,-0.34 -0.47,-0.52 l -0.29,2 c -0.09,0.67 -0.99,0.99 -1.6,0.58 l -4.58,-3.09 c -1.18,-0.81 -2.8,-0.94 -4.15,-0.35 l -3.06,1.35 c -1.81,0.8 -3.77,1.2 -5.73,1.23 v 0 h -0.02 c -0.08,0.01 -0.15,0.01 -0.23,0.01 -0.08,0 -0.15,0 -0.23,-0.01 h -0.02 v 0 c -1.96,-0.03 -3.92,-0.43 -5.72,-1.23 L 12,788.04 c -1.35,-0.59 -2.96,-0.46 -4.15,0.35 l -4.86,3.28 C 2.5,792 1.79,791.74 1.71,791.21 L 1.39,788.9 c -0.17,0.18 -0.34,0.36 -0.47,0.52 -0.06,0.06 -0.17,0.02 -0.17,-0.06 0.03,-0.42 0.1,-0.84 0.16,-1.26 0.06,-0.41 0.13,-0.82 0.19,-1.23 l -0.01,-0.06 c -0.27,0.31 -0.62,0.68 -0.88,0.97 -0.07,0.08 -0.21,0.04 -0.2,-0.06 0.04,-0.53 0.12,-1.06 0.2,-1.59 0.11,-0.77 0.23,-1.54 0.34,-2.31 0.08,-0.48 0.25,-1.67 0.44,-2.8 0.04,-0.23 0.43,-0.24 0.49,-0.01 l 1.8,7.3 c 0.19,0.41 0.78,0.54 1.17,0.27 l 0.58,-0.3 c 1.92,-1 4.5,-4.16 4.5,-4.16 0.3,-0.22 0.21,-0.64 -0.17,-0.75 -0.57,-0.15 -1.12,-0.32 -1.65,-0.52 -1.53,-0.58 -2.96,-1.33 -4.11,-2.29 -1.29,-1.07 -1.73,-2.7 -1.16,-4.16 l 1.15,-2.99 c 0.11,-0.43 0.28,-0.83 0.51,-1.2 0.18,-0.28 0.38,-0.54 0.62,-0.78 0.15,-0.14 0.42,-0.01 0.36,0.17 -0.07,0.22 -0.12,0.45 -0.16,0.68 0.01,0.01 0.02,0.02 0.04,0.02 0.01,0 0.02,0 0.03,-0.01 v 0.01 c 0.19,-0.31 0.4,-0.6 0.65,-0.86 0.15,-0.15 0.43,-0.02 0.37,0.17 -0.03,0.11 -0.06,0.22 -0.09,0.34 0,0.02 0.02,0.03 0.04,0.03 0.01,0 0.01,0 0.02,0 v 0 l 2.9,-1.29 c 0.57,-0.26 1.23,-0.3 1.83,-0.12 l 5.14,1.54 c 1.1,0.33 2.32,-0.1 2.84,-1.01 l 0.81,-1.42 c 0.23,-0.39 0.63,-0.7 1.13,-0.8 0.8,-0.17 1.59,0.17 1.94,0.77 l 0.83,1.45 c 0.52,0.91 1.73,1.34 2.84,1.01 l 5.14,-1.54 c 0.6,-0.18 1.25,-0.14 1.82,0.12 l 2.91,1.29 v 0 c 0,0 0.01,0 0.01,0 0.02,0 0.04,-0.01 0.04,-0.03 -0.02,-0.12 -0.05,-0.23 -0.09,-0.34 -0.06,-0.19 0.22,-0.32 0.37,-0.17 0.25,0.26 0.47,0.55 0.65,0.86 v -0.01 c 0.01,0.01 0.02,0.01 0.03,0.01 0.02,0 0.03,-0.01 0.04,-0.02 -0.04,-0.23 -0.09,-0.46 -0.16,-0.68 -0.06,-0.19 0.22,-0.31 0.37,-0.16 0.49,0.49 0.86,1.09 1.06,1.75 l 1.24,3.24 c 0.56,1.46 0.12,3.09 -1.18,4.16 -1.14,0.95 -2.57,1.69 -4.08,2.26 -0.54,0.2 -1.09,0.37 -1.65,0.52 -0.38,0.11 -0.17,0.75 -0.17,0.75 1.02,1.73 2.58,3.16 4.5,4.16 l 0.58,0.3 c 0.39,0.27 0.98,0.14 1.17,-0.27 l 1.78,-7.21 c 0.06,-0.23 0.44,-0.22 0.48,0.01 0.2,1.1 0.36,2.24 0.43,2.71 0.11,0.77 0.23,1.54 0.35,2.31 0.08,0.53 0.16,1.06 0.19,1.59 0.01,0.1 -0.13,0.14 -0.2,0.06 z"
           class="st1"
           id="path4760"
           style="fill:#d8d8d8;stroke:none;stroke-width:1;stroke-linecap:butt" /></g></g><g
       id="shape2-44"
       v:mID="2"
       v:groupContext="shape"
       v:layerMember="0"
       transform="translate(96.75,-626.85)"><title
   id="title4808">Process</title><desc
   id="desc4810">Orbit</desc><v:custProps><v:cp
     v:nameU="Cost"
     v:lbl="Cost"
     v:prompt=""
     v:type="7"
     v:format="@"
     v:sortKey=""
     v:invis="false"
     v:ask="false"
     v:langID="1033"
     v:cal="0" /><v:cp
     v:nameU="ProcessNumber"
     v:lbl="Process Number"
     v:prompt=""
     v:type="2"
     v:format=""
     v:sortKey=""
     v:invis="false"
     v:ask="false"
     v:langID="1033"
     v:cal="0" /><v:cp
     v:nameU="Owner"
     v:lbl="Owner"
     v:prompt=""
     v:type="0"
     v:format=""
     v:sortKey=""
     v:invis="false"
     v:ask="false"
     v:langID="1033"
     v:cal="0" /><v:cp
     v:nameU="Function"
     v:lbl="Function"
     v:prompt=""
     v:type="0"
     v:format=""
     v:sortKey=""
     v:invis="false"
     v:ask="false"
     v:langID="1033"
     v:cal="0"
     v:val="VT4()" /><v:cp
     v:nameU="StartDate"
     v:lbl="Start Date"
     v:prompt=""
     v:type="5"
     v:format=""
     v:sortKey=""
     v:invis="false"
     v:ask="false"
     v:langID="1033"
     v:cal="0" /><v:cp
     v:nameU="EndDate"
     v:lbl="End Date"
     v:prompt=""
     v:type="5"
     v:format=""
     v:sortKey=""
     v:invis="false"
     v:ask="false"
     v:langID="1033"
     v:cal="0" /><v:cp
     v:nameU="Status"
     v:lbl="Status"
     v:prompt=""
     v:type="4"
     v:format=";Not Started;In Progress;Completed;Deferred;Waiting on Input"
     v:sortKey=""
     v:invis="false"
     v:ask="false"
     v:langID="1033"
     v:cal="0"
     v:val="VT4()" /></v:custProps><v:userDefs><v:ud
     v:nameU="visVersion"
     v:prompt=""
     v:val="VT0(15):26" /><v:ud
     v:nameU="DefaultWidth"
     v:prompt=""
     v:val="VT0(1):0" /><v:ud
     v:nameU="DefaultHeight"
     v:prompt=""
     v:val="VT0(0.75):0" /><v:ud
     v:nameU="ResizeTxtHeight"
     v:prompt=""
     v:val="VT0(0.75):0" /></v:userDefs><v:textBlock
   v:margins="rect(2,2,2,2)" /><v:textRect
   cx="36"
   cy="778.5"
   width="72"
   height="27" /><rect
   x="0"
   y="765"
   width="72"
   height="27"
   class="st6"
   id="rect4812"
   style="fill:#ffffff;stroke:#000000;stroke-width:0.23999999;stroke-linecap:round;stroke-linejoin:round" /><text
   x="27.6"
   y="780.90002"
   class="st7"
   v:langID="1033"
   id="text4814"
   style="font-size:7.99997000000000025px;font-family:Helvetica;fill:#000000;-inkscape-font-specification:'Helvetica, Normal';font-weight:normal;font-style:normal;font-stretch:normal;font-variant:normal;font-variant-ligatures:normal;font-variant-caps:normal;font-variant-numeric:normal;font-variant-east-asian:normal;"><v:paragraph
     v:horizAlign="1" /><v:tabList /><tspan
     id="tspan993">GUI</tspan></text>
</g><g
       id="shape3-47"
       v:mID="3"
       v:groupContext="shape"
       v:layerMember="0"
       transform="translate(96.75,-591.93)"><title
   id="title4817">Process.3</title><desc
   id="desc4819">CLI</desc><v:custProps><v:cp
     v:nameU="Cost"
     v:lbl="Cost"
     v:prompt=""
     v:type="7"
     v:format="@"
     v:sortKey=""
     v:invis="false"
     v:ask="false"
     v:langID="1033"
     v:cal="0" /><v:cp
     v:nameU="ProcessNumber"
     v:lbl="Process Number"
     v:prompt=""
     v:type="2"
     v:format=""
     v:sortKey=""
     v:invis="false"
     v:ask="false"
     v:langID="1033"
     v:cal="0" /><v:cp
     v:nameU="Owner"
     v:lbl="Owner"
     v:prompt=""
     v:type="0"
     v:format=""
     v:sortKey=""
     v:invis="false"
     v:ask="false"
     v:langID="1033"
     v:cal="0" /><v:cp
     v:nameU="Function"
     v:lbl="Function"
     v:prompt=""
     v:type="0"
     v:format=""
     v:sortKey=""
     v:invis="false"
     v:ask="false"
     v:langID="1033"
     v:cal="0"
     v:val="VT4()" /><v:cp
     v:nameU="StartDate"
     v:lbl="Start Date"
     v:prompt=""
     v:type="5"
     v:format=""
     v:sortKey=""
     v:invis="false"
     v:ask="false"
     v:langID="1033"
     v:cal="0" /><v:cp
     v:nameU="EndDate"
     v:lbl="End Date"
     v:prompt=""
     v:type="5"
     v:format=""
     v:sortKey=""
     v:invis="false"
     v:ask="false"
     v:langID="1033"
     v:cal="0" /><v:cp
     v:nameU="Status"
     v:lbl="Status"
     v:prompt=""
     v:type="4"
     v:format=";Not Started;In Progress;Completed;Deferred;Waiting on Input"
     v:sortKey=""
     v:invis="false"
     v:ask="false"
     v:langID="1033"
     v:cal="0"
     v:val="VT4()" /></v:custProps><v:userDefs><v:ud
     v:nameU="visVersion"
     v:prompt=""
     v:val="VT0(15):26" /><v:ud
     v:nameU="DefaultWidth"
     v:prompt=""
     v:val="VT0(1):0" /><v:ud
     v:nameU="DefaultHeight"
     v:prompt=""
     v:val="VT0(0.75):0" /><v:ud
     v:nameU="ResizeTxtHeight"
     v:prompt=""
     v:val="VT0(0.75):0" /></v:userDefs><v:textBlock
   v:margins="rect(2,2,2,2)" /><v:textRect
   cx="36"
   cy="778.5"
   width="72"
   height="27" /><rect
   x="0"
   y="765"
   width="72"
   height="27"
   class="st6"
   id="rect4821"
   style="fill:#ffffff;stroke:#000000;stroke-width:0.23999999;stroke-linecap:round;stroke-linejoin:round" /><text
   x="31.18"
   y="780.90002"
   class="st7"
   v:langID="1033"
   id="text4823"
   style="font-size:7.99996805px;font-family:Helvetica;fill:#000000"><v:paragraph
   v:horizAlign="1" /><v:tabList />CLI</text>
</g><g
       id="shape4-50"
       v:mID="4"
       v:groupContext="shape"
       v:layerMember="0"
       transform="translate(204.75,-597.656)"><title
   id="title4826">Process.4</title><desc
   id="desc4828">Zenko</desc><v:custProps><v:cp
     v:nameU="Cost"
     v:lbl="Cost"
     v:prompt=""
     v:type="7"
     v:format="@"
     v:sortKey=""
     v:invis="false"
     v:ask="false"
     v:langID="1033"
     v:cal="0" /><v:cp
     v:nameU="ProcessNumber"
     v:lbl="Process Number"
     v:prompt=""
     v:type="2"
     v:format=""
     v:sortKey=""
     v:invis="false"
     v:ask="false"
     v:langID="1033"
     v:cal="0" /><v:cp
     v:nameU="Owner"
     v:lbl="Owner"
     v:prompt=""
     v:type="0"
     v:format=""
     v:sortKey=""
     v:invis="false"
     v:ask="false"
     v:langID="1033"
     v:cal="0" /><v:cp
     v:nameU="Function"
     v:lbl="Function"
     v:prompt=""
     v:type="0"
     v:format=""
     v:sortKey=""
     v:invis="false"
     v:ask="false"
     v:langID="1033"
     v:cal="0"
     v:val="VT4()" /><v:cp
     v:nameU="StartDate"
     v:lbl="Start Date"
     v:prompt=""
     v:type="5"
     v:format=""
     v:sortKey=""
     v:invis="false"
     v:ask="false"
     v:langID="1033"
     v:cal="0" /><v:cp
     v:nameU="EndDate"
     v:lbl="End Date"
     v:prompt=""
     v:type="5"
     v:format=""
     v:sortKey=""
     v:invis="false"
     v:ask="false"
     v:langID="1033"
     v:cal="0" /><v:cp
     v:nameU="Status"
     v:lbl="Status"
     v:prompt=""
     v:type="4"
     v:format=";Not Started;In Progress;Completed;Deferred;Waiting on Input"
     v:sortKey=""
     v:invis="false"
     v:ask="false"
     v:langID="1033"
     v:cal="0"
     v:val="VT4()" /></v:custProps><v:userDefs><v:ud
     v:nameU="visVersion"
     v:prompt=""
     v:val="VT0(15):26" /><v:ud
     v:nameU="DefaultWidth"
     v:prompt=""
     v:val="VT0(1):0" /><v:ud
     v:nameU="DefaultHeight"
     v:prompt=""
     v:val="VT0(0.75):0" /><v:ud
     v:nameU="ResizeTxtHeight"
     v:prompt=""
     v:val="VT0(0.75):0" /></v:userDefs><v:textBlock
   v:margins="rect(2,2,2,2)" /><v:textRect
   cx="25.5938"
   cy="766.406"
   width="51.19"
   height="51.1875" /><rect
   x="0"
   y="740.81201"
   width="51.1875"
   height="51.1875"
   class="st8"
   id="rect4830"
   style="fill:none;stroke:#000000;stroke-width:0.23999999;stroke-linecap:round;stroke-linejoin:round" /><text
   x="15.7"
   y="768.81"
   class="st7"
   v:langID="1033"
   id="text4832"
   style="font-size:7.99996805px;font-family:Helvetica;fill:#000000"><v:paragraph
   v:horizAlign="1" /><v:tabList />Zenko</text>
</g><g
       id="shape9-59"
       v:mID="9"
       v:groupContext="shape"
       v:layerMember="0"
       transform="translate(415.125,-635.912)"><title
   id="title4850">Process.9</title><desc
   id="desc4852">AWS</desc><v:custProps><v:cp
     v:nameU="Cost"
     v:lbl="Cost"
     v:prompt=""
     v:type="7"
     v:format="@"
     v:sortKey=""
     v:invis="false"
     v:ask="false"
     v:langID="1033"
     v:cal="0" /><v:cp
     v:nameU="ProcessNumber"
     v:lbl="Process Number"
     v:prompt=""
     v:type="2"
     v:format=""
     v:sortKey=""
     v:invis="false"
     v:ask="false"
     v:langID="1033"
     v:cal="0" /><v:cp
     v:nameU="Owner"
     v:lbl="Owner"
     v:prompt=""
     v:type="0"
     v:format=""
     v:sortKey=""
     v:invis="false"
     v:ask="false"
     v:langID="1033"
     v:cal="0" /><v:cp
     v:nameU="Function"
     v:lbl="Function"
     v:prompt=""
     v:type="0"
     v:format=""
     v:sortKey=""
     v:invis="false"
     v:ask="false"
     v:langID="1033"
     v:cal="0"
     v:val="VT4()" /><v:cp
     v:nameU="StartDate"
     v:lbl="Start Date"
     v:prompt=""
     v:type="5"
     v:format=""
     v:sortKey=""
     v:invis="false"
     v:ask="false"
     v:langID="1033"
     v:cal="0" /><v:cp
     v:nameU="EndDate"
     v:lbl="End Date"
     v:prompt=""
     v:type="5"
     v:format=""
     v:sortKey=""
     v:invis="false"
     v:ask="false"
     v:langID="1033"
     v:cal="0" /><v:cp
     v:nameU="Status"
     v:lbl="Status"
     v:prompt=""
     v:type="4"
     v:format=";Not Started;In Progress;Completed;Deferred;Waiting on Input"
     v:sortKey=""
     v:invis="false"
     v:ask="false"
     v:langID="1033"
     v:cal="0"
     v:val="VT4()" /></v:custProps><v:userDefs><v:ud
     v:nameU="visVersion"
     v:prompt=""
     v:val="VT0(15):26" /><v:ud
     v:nameU="DefaultWidth"
     v:prompt=""
     v:val="VT0(1):0" /><v:ud
     v:nameU="DefaultHeight"
     v:prompt=""
     v:val="VT0(0.75):0" /><v:ud
     v:nameU="ResizeTxtHeight"
     v:prompt=""
     v:val="VT0(0.75):0" /></v:userDefs><v:textBlock
   v:margins="rect(2,2,2,2)" /><v:textRect
   cx="19.125"
   cy="778.5"
   width="38.25"
   height="27" /><rect
   x="0"
   y="765"
   width="38.25"
   height="27"
   class="st6"
   id="rect4854"
   style="fill:#ffffff;stroke:#000000;stroke-width:0.23999999;stroke-linecap:round;stroke-linejoin:round" /><text
   x="11.41"
   y="780.90002"
   class="st7"
   v:langID="1033"
   id="text4856"
   style="font-size:7.99996805px;font-family:Helvetica;fill:#000000"><v:paragraph
   v:horizAlign="1" /><v:tabList />AWS</text>
</g><g
       id="shape10-62"
       v:mID="10"
       v:groupContext="shape"
       v:layerMember="0"
       transform="translate(415.125,-600.648)"><title
   id="title4859">Process.10</title><desc
   id="desc4861">GCP</desc><v:custProps><v:cp
     v:nameU="Cost"
     v:lbl="Cost"
     v:prompt=""
     v:type="7"
     v:format="@"
     v:sortKey=""
     v:invis="false"
     v:ask="false"
     v:langID="1033"
     v:cal="0" /><v:cp
     v:nameU="ProcessNumber"
     v:lbl="Process Number"
     v:prompt=""
     v:type="2"
     v:format=""
     v:sortKey=""
     v:invis="false"
     v:ask="false"
     v:langID="1033"
     v:cal="0" /><v:cp
     v:nameU="Owner"
     v:lbl="Owner"
     v:prompt=""
     v:type="0"
     v:format=""
     v:sortKey=""
     v:invis="false"
     v:ask="false"
     v:langID="1033"
     v:cal="0" /><v:cp
     v:nameU="Function"
     v:lbl="Function"
     v:prompt=""
     v:type="0"
     v:format=""
     v:sortKey=""
     v:invis="false"
     v:ask="false"
     v:langID="1033"
     v:cal="0"
     v:val="VT4()" /><v:cp
     v:nameU="StartDate"
     v:lbl="Start Date"
     v:prompt=""
     v:type="5"
     v:format=""
     v:sortKey=""
     v:invis="false"
     v:ask="false"
     v:langID="1033"
     v:cal="0" /><v:cp
     v:nameU="EndDate"
     v:lbl="End Date"
     v:prompt=""
     v:type="5"
     v:format=""
     v:sortKey=""
     v:invis="false"
     v:ask="false"
     v:langID="1033"
     v:cal="0" /><v:cp
     v:nameU="Status"
     v:lbl="Status"
     v:prompt=""
     v:type="4"
     v:format=";Not Started;In Progress;Completed;Deferred;Waiting on Input"
     v:sortKey=""
     v:invis="false"
     v:ask="false"
     v:langID="1033"
     v:cal="0"
     v:val="VT4()" /></v:custProps><v:userDefs><v:ud
     v:nameU="visVersion"
     v:prompt=""
     v:val="VT0(15):26" /><v:ud
     v:nameU="DefaultWidth"
     v:prompt=""
     v:val="VT0(1):0" /><v:ud
     v:nameU="DefaultHeight"
     v:prompt=""
     v:val="VT0(0.75):0" /><v:ud
     v:nameU="ResizeTxtHeight"
     v:prompt=""
     v:val="VT0(0.75):0" /></v:userDefs><v:textBlock
   v:margins="rect(2,2,2,2)" /><v:textRect
   cx="19.125"
   cy="778.5"
   width="38.25"
   height="27" /><rect
   x="0"
   y="765"
   width="38.25"
   height="27"
   class="st6"
   id="rect4863"
   style="fill:#ffffff;stroke:#000000;stroke-width:0.23999999;stroke-linecap:round;stroke-linejoin:round" /><text
   x="12.4"
   y="780.90002"
   class="st7"
   v:langID="1033"
   id="text4865"
   style="font-size:7.99996805px;font-family:Helvetica;fill:#000000"><v:paragraph
   v:horizAlign="1" /><v:tabList />GCP</text>
</g><g
       id="shape11-65"
       v:mID="11"
       v:groupContext="shape"
       v:layerMember="0"
       transform="translate(415.133,-565.385)"><title
   id="title4868">Process.11</title><desc
   id="desc4870">Azure</desc><v:custProps><v:cp
     v:nameU="Cost"
     v:lbl="Cost"
     v:prompt=""
     v:type="7"
     v:format="@"
     v:sortKey=""
     v:invis="false"
     v:ask="false"
     v:langID="1033"
     v:cal="0" /><v:cp
     v:nameU="ProcessNumber"
     v:lbl="Process Number"
     v:prompt=""
     v:type="2"
     v:format=""
     v:sortKey=""
     v:invis="false"
     v:ask="false"
     v:langID="1033"
     v:cal="0" /><v:cp
     v:nameU="Owner"
     v:lbl="Owner"
     v:prompt=""
     v:type="0"
     v:format=""
     v:sortKey=""
     v:invis="false"
     v:ask="false"
     v:langID="1033"
     v:cal="0" /><v:cp
     v:nameU="Function"
     v:lbl="Function"
     v:prompt=""
     v:type="0"
     v:format=""
     v:sortKey=""
     v:invis="false"
     v:ask="false"
     v:langID="1033"
     v:cal="0"
     v:val="VT4()" /><v:cp
     v:nameU="StartDate"
     v:lbl="Start Date"
     v:prompt=""
     v:type="5"
     v:format=""
     v:sortKey=""
     v:invis="false"
     v:ask="false"
     v:langID="1033"
     v:cal="0" /><v:cp
     v:nameU="EndDate"
     v:lbl="End Date"
     v:prompt=""
     v:type="5"
     v:format=""
     v:sortKey=""
     v:invis="false"
     v:ask="false"
     v:langID="1033"
     v:cal="0" /><v:cp
     v:nameU="Status"
     v:lbl="Status"
     v:prompt=""
     v:type="4"
     v:format=";Not Started;In Progress;Completed;Deferred;Waiting on Input"
     v:sortKey=""
     v:invis="false"
     v:ask="false"
     v:langID="1033"
     v:cal="0"
     v:val="VT4()" /></v:custProps><v:userDefs><v:ud
     v:nameU="visVersion"
     v:prompt=""
     v:val="VT0(15):26" /><v:ud
     v:nameU="DefaultWidth"
     v:prompt=""
     v:val="VT0(1):0" /><v:ud
     v:nameU="DefaultHeight"
     v:prompt=""
     v:val="VT0(0.75):0" /><v:ud
     v:nameU="ResizeTxtHeight"
     v:prompt=""
     v:val="VT0(0.75):0" /></v:userDefs><v:textBlock
   v:margins="rect(2,2,2,2)" /><v:textRect
   cx="19.125"
   cy="778.5"
   width="38.25"
   height="27" /><rect
   x="0"
   y="765"
   width="38.25"
   height="27"
   class="st6"
   id="rect4872"
   style="fill:#ffffff;stroke:#000000;stroke-width:0.23999999;stroke-linecap:round;stroke-linejoin:round" /><text
   x="9.7399998"
   y="780.90002"
   class="st7"
   v:langID="1033"
   id="text4874"
   style="font-size:7.99996805px;font-family:Helvetica;fill:#000000"><v:paragraph
   v:horizAlign="1" /><v:tabList />Azure</text>
</g><g
       id="shape12-68"
       v:mID="12"
       v:groupContext="shape"
       v:layerMember="0"
       transform="translate(415.125,-671.625)"><title
   id="title4877">Process.12</title><desc
   id="desc4879">RING</desc><v:custProps><v:cp
     v:nameU="Cost"
     v:lbl="Cost"
     v:prompt=""
     v:type="7"
     v:format="@"
     v:sortKey=""
     v:invis="false"
     v:ask="false"
     v:langID="1033"
     v:cal="0" /><v:cp
     v:nameU="ProcessNumber"
     v:lbl="Process Number"
     v:prompt=""
     v:type="2"
     v:format=""
     v:sortKey=""
     v:invis="false"
     v:ask="false"
     v:langID="1033"
     v:cal="0" /><v:cp
     v:nameU="Owner"
     v:lbl="Owner"
     v:prompt=""
     v:type="0"
     v:format=""
     v:sortKey=""
     v:invis="false"
     v:ask="false"
     v:langID="1033"
     v:cal="0" /><v:cp
     v:nameU="Function"
     v:lbl="Function"
     v:prompt=""
     v:type="0"
     v:format=""
     v:sortKey=""
     v:invis="false"
     v:ask="false"
     v:langID="1033"
     v:cal="0"
     v:val="VT4()" /><v:cp
     v:nameU="StartDate"
     v:lbl="Start Date"
     v:prompt=""
     v:type="5"
     v:format=""
     v:sortKey=""
     v:invis="false"
     v:ask="false"
     v:langID="1033"
     v:cal="0" /><v:cp
     v:nameU="EndDate"
     v:lbl="End Date"
     v:prompt=""
     v:type="5"
     v:format=""
     v:sortKey=""
     v:invis="false"
     v:ask="false"
     v:langID="1033"
     v:cal="0" /><v:cp
     v:nameU="Status"
     v:lbl="Status"
     v:prompt=""
     v:type="4"
     v:format=";Not Started;In Progress;Completed;Deferred;Waiting on Input"
     v:sortKey=""
     v:invis="false"
     v:ask="false"
     v:langID="1033"
     v:cal="0"
     v:val="VT4()" /></v:custProps><v:userDefs><v:ud
     v:nameU="visVersion"
     v:prompt=""
     v:val="VT0(15):26" /><v:ud
     v:nameU="DefaultWidth"
     v:prompt=""
     v:val="VT0(1):0" /><v:ud
     v:nameU="DefaultHeight"
     v:prompt=""
     v:val="VT0(0.75):0" /><v:ud
     v:nameU="ResizeTxtHeight"
     v:prompt=""
     v:val="VT0(0.75):0" /></v:userDefs><v:textBlock
   v:margins="rect(2,2,2,2)" /><v:textRect
   cx="19.125"
   cy="778.5"
   width="38.25"
   height="27" /><rect
   x="0"
   y="765"
   width="38.25"
   height="27"
   class="st6"
   id="rect4881"
   style="fill:#ffffff;stroke:#000000;stroke-width:0.23999999;stroke-linecap:round;stroke-linejoin:round" /><text
   x="10.84"
   y="780.90002"
   class="st7"
   v:langID="1033"
   id="text4883"
   style="font-size:7.99996805px;font-family:Helvetica;fill:#000000"><v:paragraph
   v:horizAlign="1" /><v:tabList />RING</text>
</g><g
       id="shape20-76"
       v:mID="20"
       v:groupContext="shape"
       v:layerMember="1"
       transform="translate(168.75,-640.8)"><title
         id="title4891">Dynamic connector.20</title><path
         d="m 0,792.45 28.49,13.53"
         class="st12"
         id="path4893"
         style="stroke:#000000;stroke-width:0.25;stroke-linecap:round;stroke-linejoin:round;marker-end:url(#mrkr13-81)" /></g><g
       id="shape24-82"
       v:mID="24"
       v:groupContext="shape"
       transform="rotate(3.2724,11037.366,4960.3081)"><title
   id="title4896">Sheet.24</title><desc
   id="desc4898">GCP XML API</desc><v:textBlock
   v:margins="rect(4,4,4,4)" /><v:textRect
   cx="104.083"
   cy="792.242"
   width="159.45"
   height="0" /><path
   d="M 0,792 H 151.14"
   class="st12"
   id="path4900"
   style="stroke:#000000;stroke-width:0.25;stroke-linecap:round;stroke-linejoin:round;marker-end:url(#mrkr13-81)" /><rect
   v:rectContext="textBkgnd"
   x="82.985703"
   y="787.44202"
   width="42.195202"
   height="9.5998497"
   class="st14"
   id="rect4902"
   style="fill:#ffffff;stroke:none;stroke-linecap:butt" /><text
   x="82.989998"
   y="794.64001"
   class="st7"
   v:langID="1033"
   id="text4904"
   style="font-size:7px;font-family:Helvetica;fill:#000000"><v:paragraph
   v:horizAlign="1" /><v:tabList />GCP XML API</text>
</g><g
       id="shape25-89"
       v:mID="25"
       v:groupContext="shape"
       transform="rotate(-9.33283,-3689.8004,-1087.3889)"><title
   id="title4907">Sheet.25</title><desc
   id="desc4909">S3 API</desc><v:textBlock
   v:margins="rect(4,4,4,4)" /><v:textRect
   cx="92.99"
   cy="791.889"
   width="161.33"
   height="0" /><path
   d="M 0,792 H 153.01"
   class="st12"
   id="path4911"
   style="stroke:#000000;stroke-width:0.25;stroke-linecap:round;stroke-linejoin:round;marker-end:url(#mrkr13-81)" /><rect
   v:rectContext="textBkgnd"
   x="82.831902"
   y="787.08899"
   width="20.3165"
   height="9.5998497"
   class="st14"
   id="rect4913"
   style="fill:#ffffff;stroke:none;stroke-linecap:butt" /><text
   x="82.830002"
   y="794.28998"
   class="st7"
   v:langID="1033"
   id="text4915"
   style="font-size:7px;font-family:Helvetica;fill:#000000"><v:paragraph
   v:horizAlign="1" /><v:tabList />S3 API</text>
</g><g
       id="shape27-96"
       v:mID="27"
       v:groupContext="shape"
       transform="rotate(15.5723,2406.985,1416.2512)"><title
   id="title4918">Sheet.27</title><desc
   id="desc4920">Azure Storage API</desc><v:textBlock
   v:margins="rect(4,4,4,4)" /><v:textRect
   cx="110.628"
   cy="791.893"
   width="165.27"
   height="0" /><path
   d="M 0,792 H 156.95"
   class="st12"
   id="path4922"
   style="stroke:#000000;stroke-width:0.25;stroke-linecap:round;stroke-linejoin:round;marker-end:url(#mrkr13-81)" /><rect
   v:rectContext="textBkgnd"
   x="81.579201"
   y="787.09399"
   width="58.097401"
   height="9.5998497"
   class="st4"
   id="rect4924"
   style="fill:#ffffff;stroke:none;stroke-width:7.19999981;stroke-linecap:butt" /><text
   x="81.580002"
   y="794.28998"
   class="st7"
   v:langID="1033"
   id="text4926"
   style="font-size:7px;font-family:Helvetica;fill:#000000"><v:paragraph
   v:horizAlign="1" /><v:tabList />Azure Storage API</text>
</g><g
       id="shape36-108"
       v:mID="36"
       v:groupContext="shape"
       transform="rotate(-21.2407,-1533.9208,-202.07783)"><title
   id="title4934">Sheet.36</title><desc
   id="desc4936">S3 API</desc><v:textBlock
   v:margins="rect(4,4,4,4)" /><v:textRect
   cx="94.1642"
   cy="791.783"
   width="170.79"
   height="0" /><path
   d="M 0,792 H 162.48"
   class="st12"
   id="path4938"
   style="stroke:#000000;stroke-width:0.25;stroke-linecap:round;stroke-linejoin:round;marker-end:url(#mrkr13-81)" /><rect
   v:rectContext="textBkgnd"
   x="84.006104"
   y="786.98297"
   width="20.3165"
   height="9.5998497"
   class="st14"
   id="rect4940"
   style="fill:#ffffff;stroke:none;stroke-linecap:butt" /><text
   x="84.010002"
   y="794.17999"
   class="st7"
   v:langID="1033"
   id="text4942"
   style="font-size:7px;font-family:Helvetica;fill:#000000"><v:paragraph
   v:horizAlign="1" /><v:tabList />S3 API</text>
</g><g
       id="shape38-115"
       v:mID="38"
       v:groupContext="shape"
       transform="translate(184.5,-713.25)"><title
         id="title4945">Sheet.38</title><path
         d="M 0,792 H 164.25"
         class="st15"
         id="path4947"
         style="stroke:#ffffff;stroke-width:0.75;stroke-linecap:round;stroke-linejoin:round" /></g><g
       id="shape39-118"
       v:mID="39"
       v:groupContext="shape"
       transform="translate(289.125,-557.55)"><title
         id="title4950">Sheet.39</title><path
         d="M 0,792 H 164.25"
         class="st15"
         id="path4952"
         style="stroke:#ffffff;stroke-width:0.75;stroke-linecap:round;stroke-linejoin:round" /></g><g
       id="shape40-121"
       v:mID="40"
       v:groupContext="shape"
       transform="rotate(-90,-247.725,452.475)"><title
         id="title4955">Sheet.40</title><path
         d="M 0,792 H 90.45"
         class="st15"
         id="path4957"
         style="stroke:#ffffff;stroke-width:0.75;stroke-linecap:round;stroke-linejoin:round" /></g><g
       id="shape41-124"
       v:mID="41"
       v:groupContext="shape"
       transform="rotate(-90,-65.025,269.775)"><title
         id="title4960">Sheet.41</title><path
         d="M 0,792 H 90.45"
         class="st15"
         id="path4962"
         style="stroke:#ffffff;stroke-width:0.75;stroke-linecap:round;stroke-linejoin:round" /></g><g
       id="shape42-127"
       v:mID="42"
       v:groupContext="shape"
       transform="rotate(-26.3354,-1209.5391,128.63562)"><title
   id="title4965">Sheet.42</title><desc
   id="desc4967">S3 API</desc><v:textBlock
   v:margins="rect(4,4,4,4)" /><v:textRect
   cx="20.0845"
   cy="792"
   width="40.17"
   height="0" /><path
   d="M 0,792 H 31.86"
   class="st12"
   id="path4969"
   style="stroke:#000000;stroke-width:0.25;stroke-linecap:round;stroke-linejoin:round;marker-end:url(#mrkr13-81)" /><rect
   v:rectContext="textBkgnd"
   x="9.9264202"
   y="787.20001"
   width="20.3165"
   height="9.5998497"
   class="st14"
   id="rect4971"
   style="fill:#ffffff;stroke:none;stroke-linecap:butt" /><text
   x="9.9300003"
   y="794.40002"
   class="st7"
   v:langID="1033"
   id="text4973"
   style="font-size:7px;font-family:Helvetica;fill:#000000"><v:paragraph
   v:horizAlign="1" /><v:tabList />S3 API</text>
</g></g></svg>
